# xmcd CD database file
#
# Track frame offsets:
#	150
#	27567
#	45645
#	65695
#	87885
#	110772
#	140872
#	170797
#	197257
#	219905
#	243445
#	264335
#
# Disc length: 3807 seconds
#
# Revision: 0
# Processed by: cddbd v1.5.1PL2 Copyright (c) Steve Scherf et al.
# Submitted via: CDex 1.51
#
DISCID=b10edd0c
DTITLE=Eiji Kitamura - Swingin' Season
DYEAR=1986
DGENRE=Jazz
TTITLE0=Avalon
TTITLE1=I Surrender Dear
TTITLE2=Lazy River
TTITLE3=Who's Sorry Now
TTITLE4=Stompin' At The Savoy
TTITLE5=Bye Bye Blackbird
TTITLE6=Honeysuckle Rose
TTITLE7=If I Had You
TTITLE8=Polka Dots And Moonbeams
TTITLE9=You Took Advantage Of Me
TTITLE10=Rosetta
TTITLE11=As Time Goes By
EXTD=YEAR: 1986
EXTT0=
EXTT1=
EXTT2=
EXTT3=
EXTT4=
EXTT5=
EXTT6=
EXTT7=
EXTT8=
EXTT9=
EXTT10=
EXTT11=
PLAYORDER=
